<svg width="22" height="22" viewBox="0 0 22 22" fill="none" xmlns="http://www.w3.org/2000/svg">
<path d="M10.0835 19.2796C10.0835 19.0443 10.1772 18.8187 10.3441 18.6523C10.5109 18.4859 10.7372 18.3925 10.9732 18.3925H18.0908C18.1695 18.3925 18.2449 18.3613 18.3006 18.3059C18.3562 18.2504 18.3874 18.1752 18.3874 18.0968V3.90324C18.3874 3.82481 18.3562 3.7496 18.3006 3.69415C18.2449 3.63869 18.1695 3.60754 18.0908 3.60754H10.9732C10.7372 3.60754 10.5109 3.51408 10.3441 3.34771C10.1772 3.18135 10.0835 2.95571 10.0835 2.72044C10.0835 2.48517 10.1772 2.25953 10.3441 2.09317C10.5109 1.92681 10.7372 1.83334 10.9732 1.83334H18.0908C19.2368 1.83334 20.1668 2.76066 20.1668 3.90324V18.0968C20.1668 18.6458 19.9481 19.1722 19.5588 19.5604C19.1695 19.9486 18.6414 20.1667 18.0908 20.1667H10.9732C10.7372 20.1667 10.5109 20.0732 10.3441 19.9069C10.1772 19.7405 10.0835 19.5149 10.0835 19.2796Z" fill="#161101"/>
<path d="M15.5832 12.2401C15.5832 12.5337 15.4556 12.8153 15.2285 13.023C15.0015 13.2306 14.6935 13.3473 14.3723 13.3473H8.49258C8.46433 13.7407 8.42962 14.1341 8.38845 14.5276L8.35213 14.8652C8.3386 14.9925 8.2917 15.1149 8.2154 15.2221C8.13911 15.3293 8.03567 15.418 7.91386 15.4808C7.79205 15.5436 7.65548 15.5786 7.51571 15.5829C7.37595 15.5871 7.23713 15.5605 7.11103 15.5052C4.89702 14.5361 2.8931 13.2086 1.19616 11.5868L1.15984 11.5525C1.00371 11.404 0.916504 11.206 0.916504 11C0.916504 10.794 1.00371 10.596 1.15984 10.4475L1.19616 10.4132C2.8931 8.79141 4.89702 7.46388 7.11103 6.49477C7.23713 6.43949 7.37595 6.41285 7.51571 6.4171C7.65548 6.42134 7.79205 6.45636 7.91386 6.51917C8.03567 6.58198 8.13911 6.67073 8.2154 6.77789C8.2917 6.88505 8.3386 7.00746 8.35213 7.13473L8.38845 7.47243C8.42962 7.86512 8.46433 8.25855 8.49258 8.65271H14.3723C14.6935 8.65271 15.0015 8.76936 15.2285 8.97701C15.4556 9.18465 15.5832 9.46627 15.5832 9.75992V12.2401Z" fill="#161101"/>
</svg>
