<svg width="18" height="18" viewBox="0 0 18 18" fill="none" xmlns="http://www.w3.org/2000/svg">
<path fill-rule="evenodd" clip-rule="evenodd" d="M2.286 0H5.32799C6.59699 0 7.61399 1.035 7.61399 2.3049V5.37299C7.61399 6.65099 6.59699 7.67699 5.32799 7.67699H2.286C1.026 7.67699 0 6.65099 0 5.37299V2.3049C0 1.035 1.026 0 2.286 0ZM2.28602 10.3227H5.32801C6.59701 10.3227 7.61401 11.3496 7.61401 12.6276V15.6957C7.61401 16.9647 6.59701 17.9997 5.32801 17.9997H2.28602C1.02602 17.9997 2.00275e-05 16.9647 2.00275e-05 15.6957V12.6276C2.00275e-05 11.3496 1.02602 10.3227 2.28602 10.3227ZM15.714 0H12.672C11.403 0 10.386 1.035 10.386 2.3049V5.37299C10.386 6.65099 11.403 7.67699 12.672 7.67699H15.714C16.974 7.67699 18 6.65099 18 5.37299V2.3049C18 1.035 16.974 0 15.714 0ZM12.672 10.3227H15.714C16.974 10.3227 18 11.3496 18 12.6276V15.6957C18 16.9647 16.974 17.9997 15.714 17.9997H12.672C11.403 17.9997 10.386 16.9647 10.386 15.6957V12.6276C10.386 11.3496 11.403 10.3227 12.672 10.3227Z" fill="#F8C109"/>
</svg>
