<svg width="20" height="20" viewBox="0 0 20 20" fill="none" xmlns="http://www.w3.org/2000/svg">
<path fill-rule="evenodd" clip-rule="evenodd" d="M19.9995 5.3304L19.9995 14.6694C19.9995 18.0704 18.0705 19.9904 14.6695 20.0004L5.32951 20.0004C1.92951 20.0004 -0.000489071 18.0704 -0.000488922 14.6694L-0.000488514 5.3304C-0.000488366 1.9294 1.92951 0.000395939 5.32951 0.000396087L14.6695 0.000396496C18.0705 0.000396644 19.9995 1.9294 19.9995 5.3304ZM4.13951 10.0494C4.13951 10.4804 4.45951 10.8394 4.88951 10.8794L15.0795 10.8794C15.3895 10.9194 15.7005 10.7704 15.8695 10.5004C16.0395 10.2194 16.0395 9.8794 15.8695 9.6104C15.7005 9.3394 15.3895 9.1904 15.0795 9.2194L4.88951 9.2194C4.45951 9.2704 4.13951 9.6294 4.13951 10.0494ZM4.13951 14.6504C4.13951 15.0704 4.45951 15.4294 4.88951 15.4804L8.16951 15.4804C8.49051 15.5094 8.78951 15.3604 8.95951 15.0894C9.12951 14.8204 9.12951 14.4804 8.95951 14.2004C8.78951 13.9294 8.49051 13.7804 8.16951 13.8204L4.88951 13.8204C4.45951 13.8604 4.13951 14.2194 4.13951 14.6504ZM4.88951 6.2194C4.45951 6.1794 4.13951 5.8204 4.13951 5.3894C4.13951 4.9594 4.45951 4.5994 4.88951 4.5604L11.7995 4.5604C12.1105 4.5304 12.4195 4.6794 12.5895 4.9504C12.7595 5.2194 12.7595 5.5604 12.5895 5.8304C12.4195 6.0994 12.1105 6.2504 11.7995 6.2194L4.88951 6.2194Z" fill="#F8C109"/>
</svg>
