<svg width="22" height="22" viewBox="0 0 22 22" fill="none" xmlns="http://www.w3.org/2000/svg">
<path d="M10.8612 2.47016C8.29885 2.43254 4.73947 2.48754 4.00665 4.4561L2.20617 8.68098C2.12631 8.58962 2.02158 8.5235 1.90477 8.49068L1.17987 8.28674C1.10016 8.26414 1.01677 8.2575 0.93449 8.26721C0.852209 8.27692 0.772656 8.30278 0.700396 8.34332C0.628137 8.38385 0.564595 8.43826 0.513417 8.50342C0.462239 8.56857 0.424433 8.64319 0.402169 8.723L0.0239895 10.0659C0.00142095 10.1456 -0.00519007 10.2289 0.00453566 10.3112C0.0142614 10.3935 0.0401325 10.473 0.0806647 10.5452C0.121197 10.6174 0.175593 10.681 0.240731 10.7321C0.30587 10.7833 0.380469 10.8211 0.460249 10.8434L1.18537 11.0475C1.20957 11.0541 1.23377 11.0563 1.25797 11.0603C1.11937 11.4057 1.03313 11.7854 1.03313 12.0113V16.9217C1.03313 17.1734 1.13873 17.29 1.30637 17.3446V18.6527C1.30617 18.7688 1.32889 18.8838 1.37323 18.9911C1.41757 19.0984 1.48266 19.1959 1.56476 19.278C1.64686 19.3602 1.74436 19.4252 1.85168 19.4696C1.95899 19.5139 2.074 19.5366 2.19011 19.5364H4.56105C4.67716 19.5366 4.79217 19.5139 4.89948 19.4696C5.00679 19.4252 5.1043 19.3602 5.1864 19.278C5.2685 19.1959 5.33359 19.0984 5.37793 18.9911C5.42227 18.8838 5.44499 18.7688 5.44479 18.6527V17.3925H16.5555V18.6527C16.5552 18.7688 16.578 18.8839 16.6223 18.9912C16.6667 19.0985 16.7318 19.196 16.8139 19.2781C16.896 19.3602 16.9936 19.4253 17.1009 19.4696C17.2082 19.514 17.3233 19.5367 17.4394 19.5364H19.8099C19.9261 19.5367 20.0411 19.514 20.1485 19.4697C20.2558 19.4254 20.3534 19.3603 20.4355 19.2782C20.5177 19.1961 20.5828 19.0986 20.6272 18.9912C20.6716 18.8839 20.6943 18.7688 20.6941 18.6527V17.3448C20.862 17.2902 20.9669 17.1736 20.9669 16.922V12.0116C20.9669 11.7856 20.8804 11.4059 20.7421 11.0605C20.7663 11.0568 20.7905 11.0546 20.8147 11.0477L21.54 10.8436C21.6198 10.8213 21.6943 10.7835 21.7594 10.7323C21.8246 10.6811 21.8789 10.6176 21.9194 10.5454C21.9599 10.4731 21.9858 10.3936 21.9955 10.3114C22.0052 10.2291 21.9986 10.1458 21.976 10.0661L21.5983 8.72322C21.576 8.64339 21.5382 8.56875 21.487 8.50357C21.4358 8.4384 21.3723 8.38398 21.3 8.34344C21.2277 8.30291 21.1481 8.27705 21.0658 8.26736C20.9835 8.25766 20.9001 8.26432 20.8204 8.28696L20.0955 8.4909C19.9787 8.52392 19.8739 8.59 19.7939 8.6812L17.9934 4.45632C17.208 2.45784 13.4233 2.508 10.861 2.47038M18.1995 8.94806C18.2422 9.07478 18.1146 9.15926 17.9811 9.16696C17.9811 9.16696 17.5446 9.20392 16.9427 9.25254C16.4846 8.18246 15.4203 7.4283 14.1872 7.4283C12.8339 7.4283 11.6851 8.3369 11.3166 9.57418C11.2145 9.5755 11.0959 9.5799 11.0011 9.5799C8.66977 9.5799 4.01853 9.16696 4.01853 9.16696C3.88521 9.15904 3.75739 9.07456 3.80007 8.94806C5.59131 3.48744 5.64477 3.89796 10.9008 3.95538C16.1566 4.01258 16.1872 3.62252 18.1995 8.94806ZM14.1872 8.46032C14.5116 8.45927 14.8313 8.53898 15.1173 8.69226C15.4033 8.84553 15.6467 9.06756 15.8255 9.33834C14.7728 9.41644 13.5612 9.4963 12.4322 9.54272C12.5947 9.2166 12.8451 8.94241 13.1553 8.75114C13.4654 8.55987 13.8228 8.45914 14.1872 8.46032ZM2.06955 10.2322C2.08539 10.2557 2.10079 10.2793 2.11839 10.3019H2.05019L2.06955 10.2322ZM3.23423 11.6037C3.69535 11.5962 6.17079 12.4293 6.17079 12.4293C6.47989 12.5165 6.75203 13.1008 6.75049 13.422C6.74587 14.5037 3.95451 14.1282 2.82129 14.1326C2.74514 14.1327 2.66971 14.1178 2.59933 14.0888C2.52894 14.0597 2.46499 14.017 2.41113 13.9632C2.35728 13.9094 2.31458 13.8454 2.28548 13.775C2.25639 13.7047 2.24147 13.6292 2.24159 13.5531V12.1836C2.24159 11.8624 2.77311 11.6116 3.23423 11.6037ZM18.7658 11.6037C19.2269 11.6114 19.7584 11.8624 19.7584 12.1836V13.5531C19.7586 13.6293 19.7437 13.7047 19.7146 13.7751C19.6855 13.8455 19.6428 13.9095 19.589 13.9633C19.5351 14.0172 19.4711 14.0599 19.4007 14.089C19.3303 14.118 19.2549 14.1329 19.1787 14.1328C18.0457 14.1284 15.2542 14.5037 15.2495 13.422C15.248 13.1008 15.5201 12.5165 15.8292 12.4293C15.8292 12.4293 18.3047 11.5962 18.7658 11.6037Z" fill="#523F0B"/>
</svg>
