<svg width="24" height="24" viewBox="0 0 24 24" fill="none" xmlns="http://www.w3.org/2000/svg">
<path fill-rule="evenodd" clip-rule="evenodd" d="M21.9999 12.0007C21.9999 17.5197 17.5199 22.0007 11.9999 22.0007C6.46988 22.0007 1.99988 17.5197 1.99988 12.0007C1.99988 6.4797 6.46988 2.0007 11.9999 2.0007C17.5199 2.0007 21.9999 6.4797 21.9999 12.0007ZM12.8799 15.7907C12.8799 16.2697 12.4799 16.6707 11.9999 16.6707C11.5199 16.6707 11.1299 16.2697 11.1299 15.7907L11.1299 11.3707C11.1299 10.8897 11.5199 10.5007 11.9999 10.5007C12.4799 10.5007 12.8799 10.8897 12.8799 11.3707L12.8799 15.7907ZM11.9899 7.3197C12.4799 7.3197 12.8699 7.7197 12.8699 8.1997C12.8699 8.6797 12.4799 9.0697 11.9999 9.0697C11.5099 9.0697 11.1199 8.6797 11.1199 8.1997C11.1199 7.7197 11.5099 7.3197 11.9899 7.3197Z" fill="#F8C109"/>
</svg>
