<svg width="19" height="18" viewBox="0 0 19 18" fill="none" xmlns="http://www.w3.org/2000/svg">
<path d="M6.5 2.25C6.875 2.25 8.375 5.625 8.375 6C8.375 6.75 7.25 7.5 6.875 8.25C6.5 9 7.25 9.75 8 10.5C8.2925 10.7925 9.5 12 10.25 11.625C11 11.25 11.75 10.125 12.5 10.125C12.875 10.125 16.25 11.625 16.25 12C16.25 13.5 15.125 14.625 14 15C12.875 15.375 12.125 15.375 10.625 15C9.125 14.625 8 14.25 6.125 12.375C4.25 10.5 3.875 9.375 3.5 7.875C3.125 6.375 3.125 5.625 3.5 4.5C3.875 3.375 5 2.25 6.5 2.25Z" fill="#523F0B" stroke="#523F0B" stroke-width="2" stroke-linecap="round" stroke-linejoin="round"/>
</svg>
