<svg width="18" height="18" viewBox="0 0 18 18" fill="none" xmlns="http://www.w3.org/2000/svg">
<g id="line-md:phone-filled">
<path id="Vector" d="M6 2.25C6.375 2.25 7.875 5.625 7.875 6C7.875 6.75 6.75 7.5 6.375 8.25C6 9 6.75 9.75 7.5 10.5C7.7925 10.7925 9 12 9.75 11.625C10.5 11.25 11.25 10.125 12 10.125C12.375 10.125 15.75 11.625 15.75 12C15.75 13.5 14.625 14.625 13.5 15C12.375 15.375 11.625 15.375 10.125 15C8.625 14.625 7.5 14.25 5.625 12.375C3.75 10.5 3.375 9.375 3 7.875C2.625 6.375 2.625 5.625 3 4.5C3.375 3.375 4.5 2.25 6 2.25Z" fill="#F8C109" stroke="#F8C109" stroke-width="2" stroke-linecap="round" stroke-linejoin="round"/>
</g>
</svg>
