<svg width="18" height="12" viewBox="0 0 18 12" fill="none" xmlns="http://www.w3.org/2000/svg">
<path fill-rule="evenodd" clip-rule="evenodd" d="M16.666 0.666687H15.666C15.1137 0.666687 14.666 1.1144 14.666 1.66669V10.3334C14.666 10.8856 15.1137 11.3334 15.666 11.3334H16.666C17.2183 11.3334 17.666 10.8856 17.666 10.3334V1.66669C17.666 1.1144 17.2183 0.666687 16.666 0.666687ZM11 3H12C12.5523 3 13 3.44772 13 4V10.3333C13 10.8856 12.5523 11.3333 12 11.3333H11C10.4477 11.3333 10 10.8856 10 10.3333V4C10 3.44772 10.4477 3 11 3ZM7.33203 5.33337H6.33203C5.77975 5.33337 5.33203 5.78109 5.33203 6.33337V10.3334C5.33203 10.8857 5.77975 11.3334 6.33203 11.3334H7.33203C7.88432 11.3334 8.33203 10.8857 8.33203 10.3334V6.33337C8.33203 5.78109 7.88432 5.33337 7.33203 5.33337ZM2.66602 7.33335H1.66602C1.11373 7.33335 0.666016 7.78107 0.666016 8.33335V10.3334C0.666016 10.8856 1.11373 11.3334 1.66602 11.3334H2.66602C3.2183 11.3334 3.66602 10.8856 3.66602 10.3334V8.33335C3.66602 7.78107 3.2183 7.33335 2.66602 7.33335Z" fill="black"/>
</svg>
