<svg width="24" height="24" viewBox="0 0 24 24" fill="none" xmlns="http://www.w3.org/2000/svg">
<path d="M10.1587 1.96245C10.3327 1.96257 10.5066 1.96246 10.6805 1.96239C10.9722 1.9623 11.2639 1.96241 11.5555 1.96264C11.8889 1.96289 12.2222 1.96281 12.5556 1.96255C12.8459 1.96234 13.1363 1.96231 13.4267 1.96243C13.5983 1.9625 13.7699 1.96252 13.9415 1.96236C16.1874 1.96056 16.1874 1.96056 17.1565 2.07422C17.2344 2.08331 17.2344 2.08331 17.314 2.09258C18.3546 2.22339 19.3603 2.5339 20.0686 3.35156C20.5273 3.96224 20.8596 4.7593 20.8596 5.53125C20.8141 5.5353 20.7687 5.53935 20.7219 5.54352C19.4823 5.66777 18.6591 6.21728 17.7916 7.08565C17.7345 7.14239 17.6775 7.19911 17.6204 7.25581C17.4667 7.40872 17.3133 7.56192 17.1599 7.71521C17.0638 7.81129 16.9676 7.90729 16.8714 8.00328C16.5347 8.33904 16.1983 8.67503 15.8622 9.01126C15.5503 9.32322 15.2379 9.63465 14.9252 9.94584C14.6555 10.2143 14.3862 10.4831 14.1172 10.7521C13.9571 10.9123 13.7968 11.0723 13.6362 11.2319C13.4849 11.3823 13.3342 11.5331 13.1837 11.6842C13.1289 11.7391 13.0739 11.7939 13.0188 11.8484C12.1817 12.6774 11.7128 13.5963 11.3469 14.707C11.3186 14.792 11.2903 14.8769 11.2619 14.9618C11.2057 15.1304 11.1499 15.2991 11.0942 15.4679C11.025 15.6768 10.9529 15.8845 10.8798 16.092C10.6222 16.834 10.4273 17.4865 10.7212 18.2534C10.7984 18.4093 10.8908 18.5416 11.0032 18.674C11.0627 18.75 11.0627 18.75 11.1096 18.8906C11.1958 18.9402 11.1958 18.9402 11.2971 18.9844C11.363 19.0296 11.4284 19.0755 11.4934 19.1221C11.9682 19.4401 12.4596 19.4914 13.0137 19.3936C13.2977 19.3323 13.5714 19.2404 13.8466 19.1481C13.9102 19.127 13.9739 19.106 14.0375 19.085C14.1701 19.041 14.3026 18.9968 14.435 18.9523C14.5691 18.9073 14.7034 18.8628 14.8378 18.8187C15.8854 18.4786 15.8854 18.4786 16.8752 18C16.9202 17.9751 16.9652 17.9502 17.0116 17.9245C17.2533 17.7819 17.4624 17.6146 17.6671 17.4234C17.7065 17.3868 17.7065 17.3868 17.7467 17.3495C18.0411 17.074 18.3259 16.789 18.6101 16.503C18.7065 16.406 18.8031 16.3091 18.8997 16.2122C19.1039 16.0075 19.3079 15.8026 19.5119 15.5977C19.7505 15.358 19.9891 15.1184 20.2279 14.8791C20.3232 14.7835 20.4183 14.6878 20.5134 14.5921C20.5711 14.5342 20.6289 14.4763 20.6866 14.4184C20.7131 14.3917 20.7396 14.3649 20.7669 14.3374C20.8281 14.2761 20.8906 14.216 20.9533 14.1562C20.9688 14.1562 20.9843 14.1562 21.0002 14.1562C21.0024 14.541 21.0041 14.9258 21.0051 15.3105C21.0055 15.4893 21.0062 15.6681 21.0073 15.8469C21.0295 19.6186 21.0295 19.6186 19.8752 20.8594C19.1373 21.5819 18.1548 21.8098 17.1594 21.9258C17.1135 21.9312 17.0676 21.9366 17.0204 21.9422C15.9565 22.0516 14.8787 22.0386 13.8105 22.0375C13.6395 22.0374 13.4685 22.0375 13.2974 22.0376C13.0106 22.0377 12.7239 22.0376 12.4371 22.0374C12.1096 22.0371 11.7821 22.0372 11.4546 22.0374C11.169 22.0377 10.8835 22.0377 10.5979 22.0376C10.4293 22.0375 10.2606 22.0375 10.092 22.0376C7.80248 22.0395 7.80248 22.0395 6.84103 21.9258C6.78925 21.9197 6.73748 21.9137 6.68414 21.9074C5.64271 21.776 4.63417 21.4647 3.92892 20.6426C2.98142 19.3926 2.98485 17.6748 2.98808 16.1763C2.98795 16.0745 2.98778 15.9727 2.98758 15.8709C2.98716 15.5982 2.98731 15.3255 2.98761 15.0527C2.98785 14.765 2.98763 14.4772 2.98748 14.1895C2.98731 13.7066 2.98753 13.2237 2.98798 12.7408C2.98849 12.1855 2.98833 11.6302 2.98781 11.0749C2.98738 10.5949 2.98733 10.1149 2.98757 9.63494C2.98772 9.34966 2.98774 9.06439 2.98743 8.77912C2.98715 8.5107 2.98735 8.24229 2.98789 7.97388C2.98801 7.87639 2.98798 7.7789 2.98777 7.68141C2.98468 6.10068 3.02612 4.32059 4.16512 3.09649C4.88643 2.40536 5.8837 2.18514 6.84396 2.07422C6.91335 2.06609 6.91335 2.06609 6.98415 2.05779C8.03686 1.9498 9.10169 1.96147 10.1587 1.96245ZM7.43282 8.53711C7.28786 8.72445 7.24738 8.90588 7.26583 9.14062C7.34227 9.36145 7.4587 9.51054 7.64083 9.65625C7.97353 9.76828 8.29702 9.76356 8.64552 9.76287C8.70862 9.76308 8.77172 9.76332 8.83482 9.7636C9.00528 9.76422 9.17573 9.76425 9.34619 9.76414C9.48888 9.76408 9.63157 9.76431 9.77426 9.76454C10.1111 9.76506 10.4479 9.76508 10.7847 9.7648C11.1313 9.76451 11.4779 9.76509 11.8246 9.76609C12.123 9.76692 12.4214 9.76719 12.7198 9.76704C12.8977 9.76696 13.0756 9.76708 13.2535 9.76773C13.4208 9.76832 13.5881 9.76823 13.7554 9.76762C13.8455 9.76746 13.9356 9.76798 14.0257 9.76854C14.4176 9.76617 14.7794 9.74995 15.0705 9.46289C15.2127 9.27557 15.2529 9.09239 15.2346 8.85937C15.1581 8.63836 15.0401 8.49145 14.8596 8.34375C14.547 8.21953 14.2301 8.23648 13.8977 8.23712C13.8336 8.23692 13.7695 8.23668 13.7055 8.2364C13.5321 8.23577 13.3587 8.23574 13.1854 8.23586C13.0404 8.23591 12.8953 8.23568 12.7503 8.23546C12.408 8.23494 12.0658 8.23492 11.7235 8.2352C11.371 8.23548 11.0186 8.23491 10.6661 8.23391C10.3629 8.23308 10.0597 8.2328 9.75642 8.23295C9.57559 8.23304 9.39476 8.23292 9.21392 8.23226C9.04382 8.23167 8.87373 8.23177 8.70363 8.23238C8.6119 8.23254 8.52016 8.23201 8.42843 8.23146C8.06772 8.23361 7.68621 8.23993 7.43282 8.53711ZM7.39181 12.5713C7.28193 12.7544 7.25129 12.9122 7.26583 13.125C7.32799 13.3443 7.4186 13.4724 7.59688 13.6143C7.78929 13.7166 7.92552 13.7405 8.14058 13.7419C8.19503 13.7424 8.24949 13.7428 8.30559 13.7433C8.36447 13.7435 8.42336 13.7437 8.48403 13.7439C8.54455 13.7442 8.60507 13.7444 8.66742 13.7447C8.79561 13.7452 8.92379 13.7455 9.05197 13.7456C9.21573 13.7459 9.37948 13.747 9.54324 13.7484C9.69993 13.7494 9.85663 13.7495 10.0133 13.7498C10.0719 13.7503 10.1305 13.7509 10.1909 13.7515C10.5535 13.7506 10.7756 13.724 11.0539 13.4766C11.2208 13.2858 11.2197 13.1106 11.2161 12.8674C11.1968 12.6899 11.1364 12.5986 11.0158 12.4687C10.7084 12.2327 10.4065 12.254 10.0298 12.2563C9.96579 12.2562 9.90177 12.256 9.83776 12.2558C9.70407 12.2555 9.5704 12.2559 9.43672 12.2568C9.2659 12.2579 9.09515 12.2573 8.92434 12.2561C8.79231 12.2555 8.66029 12.2557 8.52827 12.2562C8.43485 12.2563 8.34143 12.2558 8.24801 12.2552C7.84876 12.2593 7.68018 12.2985 7.39181 12.5713ZM7.38595 16.5791C7.26833 16.8285 7.22902 17.0437 7.31563 17.3086C7.44094 17.4864 7.58446 17.6203 7.78146 17.7187C7.92116 17.7251 8.05971 17.7287 8.19948 17.7299C8.24123 17.7303 8.28298 17.7307 8.32599 17.7311C8.41453 17.7317 8.50307 17.7322 8.59162 17.7326C8.7264 17.7334 8.86113 17.7354 8.9959 17.7375C9.08199 17.738 9.16808 17.7384 9.25417 17.7387C9.29422 17.7395 9.33427 17.7403 9.37554 17.7412C9.64908 17.7402 9.80743 17.6906 10.0315 17.5312C10.1988 17.3315 10.2499 17.1413 10.2371 16.8816C10.1977 16.6636 10.0706 16.5353 9.91134 16.3916C9.7045 16.2484 9.50878 16.2567 9.26626 16.2545C9.22781 16.2541 9.18936 16.2537 9.14975 16.2533C9.0683 16.2527 8.98686 16.2522 8.90541 16.2518C8.82254 16.2512 8.73967 16.2503 8.6568 16.2489C8.5367 16.2469 8.41665 16.2461 8.29653 16.2457C8.25994 16.2448 8.22336 16.244 8.18566 16.2432C7.86086 16.2444 7.60666 16.3358 7.38595 16.5791Z" fill="#F8C109"/>
<path d="M18.212 8.79019C18.2503 8.79755 18.2887 8.80491 18.3282 8.81249C18.3515 8.86065 18.3748 8.90881 18.3987 8.95843C18.6881 9.55141 18.9944 10.0666 19.4532 10.5469C19.4786 10.5757 19.5039 10.6045 19.53 10.6342C19.9688 11.115 20.6097 11.3964 21.1876 11.6719C21.2075 11.9229 21.2075 11.9229 21.1209 12.0548C21.0893 12.0862 21.0578 12.1176 21.0253 12.1499C20.9893 12.1864 20.9533 12.223 20.9162 12.2606C20.8762 12.2998 20.8361 12.3389 20.7949 12.3793C20.7322 12.4422 20.7322 12.4422 20.6683 12.5064C20.5538 12.6214 20.4384 12.7356 20.3228 12.8496C20.2016 12.9693 20.0812 13.0899 19.9606 13.2103C19.7578 13.4128 19.5545 13.6147 19.3508 13.8163C19.0905 14.0739 18.8311 14.3323 18.5719 14.5911C18.3481 14.8145 18.1239 15.0376 17.8996 15.2606C17.8281 15.3317 17.7566 15.4029 17.6851 15.4741C17.5509 15.6078 17.4163 15.741 17.2816 15.8742C17.2426 15.9132 17.2035 15.9522 17.1632 15.9923C16.8168 16.3337 16.4572 16.6664 16.0149 16.8776C15.9679 16.9005 15.9679 16.9005 15.9199 16.9239C15.5114 17.1169 15.0828 17.2553 14.6544 17.3965C14.5724 17.424 14.4903 17.4515 14.4083 17.4791C14.2471 17.5332 14.0857 17.5869 13.9242 17.6402C13.7656 17.6926 13.6075 17.746 13.4496 17.8003C13.3925 17.8198 13.3925 17.8198 13.3343 17.8397C13.2629 17.8641 13.1916 17.8887 13.1204 17.9136C12.8575 18.0029 12.6031 18.0665 12.3282 18C12.1805 17.9197 12.0765 17.8247 12.0001 17.6719C11.9561 17.2678 12.0519 16.927 12.1818 16.5478C12.2006 16.491 12.2195 16.4342 12.239 16.3757C12.2788 16.2559 12.3192 16.1364 12.36 16.017C12.4115 15.8664 12.4617 15.7154 12.5116 15.5643C13.038 13.9733 13.8072 13.0462 14.9747 11.8704C15.0178 11.8269 15.0609 11.7835 15.1054 11.7387C15.2864 11.5564 15.4676 11.3742 15.6489 11.1922C15.9072 10.9329 16.1649 10.6731 16.4221 10.4127C16.6041 10.2285 16.7866 10.0448 16.9696 9.86154C17.0785 9.75244 17.187 9.64304 17.2951 9.53319C17.4153 9.41124 17.5363 9.29019 17.6575 9.16932C17.6929 9.13295 17.7284 9.09657 17.7649 9.0591C18.0098 8.81752 18.0098 8.81752 18.212 8.79019Z" fill="#F8C109"/>
<path d="M22.1983 7.41083C22.5984 7.72358 22.9037 8.20176 23.0038 8.70447C23.0787 9.39514 22.9801 9.99361 22.5468 10.5469C22.5126 10.5933 22.5126 10.5933 22.4778 10.6406C22.3229 10.8388 22.1889 10.9548 21.9374 11.0156C21.0873 10.9848 20.3471 10.4702 19.7835 9.86938C19.3937 9.43077 18.9784 8.75608 18.9854 8.15038C19.0133 7.86309 19.1046 7.73317 19.3124 7.54687C20.1719 6.84569 21.2732 6.7757 22.1983 7.41083Z" fill="#F8C109"/>
</svg>
