<svg width="18" height="18" viewBox="0 0 18 18" fill="none" xmlns="http://www.w3.org/2000/svg">
<path d="M16.8748 1.1375C16.7591 1.02163 16.6218 0.929691 16.4706 0.866964C16.3194 0.804237 16.1572 0.77195 15.9935 0.77195C15.8298 0.77195 15.6677 0.804237 15.5165 0.866964C15.3653 0.929691 15.2279 1.02163 15.1123 1.1375L8.99979 7.2375L2.88729 1.125C2.77156 1.00928 2.63418 0.917477 2.48297 0.854846C2.33177 0.792215 2.1697 0.759979 2.00604 0.759979C1.84238 0.759979 1.68032 0.792215 1.52911 0.854846C1.37791 0.917477 1.24052 1.00928 1.12479 1.125C1.00906 1.24073 0.917264 1.37812 0.854632 1.52933C0.792001 1.68053 0.759766 1.84259 0.759766 2.00626C0.759766 2.16992 0.792001 2.33198 0.854632 2.48318C0.917264 2.63439 1.00906 2.77178 1.12479 2.8875L7.23729 9L1.12479 15.1125C1.00906 15.2282 0.917264 15.3656 0.854632 15.5168C0.792001 15.668 0.759766 15.8301 0.759766 15.9938C0.759766 16.1574 0.792001 16.3195 0.854632 16.4707C0.917264 16.6219 1.00906 16.7593 1.12479 16.875C1.24052 16.9907 1.37791 17.0825 1.52911 17.1452C1.68032 17.2078 1.84238 17.24 2.00604 17.24C2.1697 17.24 2.33177 17.2078 2.48297 17.1452C2.63418 17.0825 2.77156 16.9907 2.88729 16.875L8.99979 10.7625L15.1123 16.875C15.228 16.9907 15.3654 17.0825 15.5166 17.1452C15.6678 17.2078 15.8299 17.24 15.9935 17.24C16.1572 17.24 16.3193 17.2078 16.4705 17.1452C16.6217 17.0825 16.7591 16.9907 16.8748 16.875C16.9905 16.7593 17.0823 16.6219 17.1449 16.4707C17.2076 16.3195 17.2398 16.1574 17.2398 15.9938C17.2398 15.8301 17.2076 15.668 17.1449 15.5168C17.0823 15.3656 16.9905 15.2282 16.8748 15.1125L10.7623 9L16.8748 2.8875C17.3498 2.4125 17.3498 1.6125 16.8748 1.1375Z" fill="black"/>
</svg>
