<svg width="16" height="12" viewBox="0 0 16 12" fill="none" xmlns="http://www.w3.org/2000/svg">
<path fill-rule="evenodd" clip-rule="evenodd" d="M8.32997 2.60802C10.5459 2.60811 12.677 3.45955 14.283 4.98635C14.4039 5.10422 14.5972 5.10274 14.7163 4.98302L15.8723 3.81635C15.9326 3.75563 15.9662 3.67338 15.9657 3.58779C15.9652 3.50221 15.9306 3.42036 15.8696 3.36035C11.6545 -0.679198 5.00473 -0.679198 0.789632 3.36035C0.728573 3.42032 0.693929 3.50215 0.693366 3.58773C0.692803 3.67331 0.726368 3.75558 0.786632 3.81635L1.94297 4.98302C2.06199 5.10292 2.25544 5.10441 2.3763 4.98635C3.98245 3.45945 6.11385 2.60801 8.32997 2.60802ZM8.33075 6.40371C9.54824 6.40363 10.7223 6.85617 11.6247 7.67338C11.7468 7.78936 11.9391 7.78684 12.0581 7.66771L13.2127 6.50104C13.2736 6.43985 13.3073 6.35683 13.3064 6.27057C13.3055 6.1843 13.2701 6.10199 13.2081 6.04204C10.4599 3.48566 6.20395 3.48566 3.45575 6.04204C3.39367 6.10199 3.35825 6.18434 3.35744 6.27063C3.35662 6.35693 3.39048 6.43994 3.45141 6.50104L4.60575 7.66771C4.72474 7.78684 4.91702 7.78936 5.03908 7.67338C5.94095 6.85671 7.11406 6.40421 8.33075 6.40371ZM10.6438 8.95752C10.6456 9.04403 10.6116 9.12743 10.5498 9.18804L8.55248 11.2037C8.49393 11.2629 8.4141 11.2963 8.33081 11.2963C8.24752 11.2963 8.1677 11.2629 8.10915 11.2037L6.11148 9.18804C6.04977 9.12739 6.01582 9.04396 6.01765 8.95745C6.01948 8.87094 6.05692 8.78903 6.12115 8.73104C7.39672 7.65215 9.26491 7.65215 10.5405 8.73104C10.6047 8.78907 10.642 8.87102 10.6438 8.95752Z" fill="black"/>
</svg>
